#N canvas 103 545 242 211 10;
#X obj 108 75 inlet~;
#X obj 108 154 outlet~;
#X obj 123 102 tgl 15 0 empty empty empty 17 7 0 10 -262144 -1 -1 1
1;
#X obj 108 127 *~;
#X obj 123 48 loadbang;
#X connect 0 0 3 0;
#X connect 2 0 3 1;
#X connect 3 0 1 0;
#X connect 4 0 2 0;
#X coords 0 -1 1 1 40 20 1 100 100;
