#N canvas 89 97 437 220 12;
#N canvas -1210 145 792 634 checkdrumsampler 0;
#X text 204 129 1;
#X obj 113 257 readsf~;
#X obj 258 338 dac~;
#X obj 414 267 readsf~;
#X obj 113 190 t a b;
#X obj 414 162 t a b;
#X obj 52 231 pack a s;
#X msg 223 164 1;
#X msg 346 160 1;
#X msg 140 221 open Bassdrum_Glitchkit_PL_05.wav;
#X msg 441 191 open Bassdrum_Glitchkit_PL_13.wav;
#X obj 257 117 inlet;
#X obj 367 116 inlet;
#X connect 1 0 2 0;
#X connect 1 0 2 1;
#X connect 3 0 2 0;
#X connect 3 0 2 1;
#X connect 4 0 6 0;
#X connect 4 1 9 0;
#X connect 5 0 3 0;
#X connect 5 1 10 0;
#X connect 6 0 1 0;
#X connect 7 0 4 0;
#X connect 8 0 5 0;
#X connect 9 0 1 0;
#X connect 10 0 3 0;
#X connect 11 0 7 0;
#X connect 12 0 8 0;
#X restore 46 99 pd checkdrumsampler;
#X obj 46 50 r A-midi;
#X obj 176 68 r B-midi;
#X connect 1 0 0 0;
#X connect 2 0 0 1;
