#N canvas 650 234 630 790 10;
#X obj 105 121 vradio 15 1 0 14 empty empty empty 0 -8 0 10 -262144
-1 -1 9;
#X text 183 420 Locrian;
#X text 183 394 Aeolian;
#X text 183 446 Ionian;
#X text 184 472 Dorian;
#X text 184 498 Phrygian;
#X text 184 524 Lydian;
#X text 185 550 Mixolydian;
#X msg 105 406 0 0 \, 2 1 \, 3 2 \, 5 3 \, 7 4 \, 8 5 \, 11 6;
#X msg 105 432 0 0 \, 1 1 \, 3 2 \, 5 3 \, 6 4 \, 8 5 \, 10 6;
#X msg 105 458 0 0 \, 2 1 \, 4 2 \, 5 3 \, 7 4 \, 9 5 \, 11 6;
#X msg 105 484 0 0 \, 2 1 \, 3 2 \, 5 3 \, 7 4 \, 9 5 \, 11 6;
#X msg 105 510 0 0 \, 1 1 \, 3 2 \, 5 3 \, 7 4 \, 8 5 \, 10 6;
#X msg 105 536 0 0 \, 2 1 \, 4 2 \, 6 3 \, 7 4 \, 9 5 \, 11 6;
#X msg 105 562 0 0 \, 2 1 \, 4 2 \, 5 3 \, 7 4 \, 9 5 \, 10 6;
#X text 335 394 Melodic Ascending Minor;
#X text 335 420 Phrygian Raised Sixth;
#X text 335 446 Lydian Raised Fifth;
#X text 335 472 Lydian-Myxolydian;
#X text 336 498 Major Minor;
#X text 336 524 Locrian Sharp 2;
#X msg 327 406 0 0 \, 2 1 \, 3 2 \, 5 3 \, 7 4 \, 9 5 \, 11 6;
#X msg 327 432 0 0 \, 1 1 \, 3 2 \, 5 3 \, 7 4 \, 9 5 \, 10 6;
#X msg 327 458 0 0 \, 2 1 \, 4 2 \, 6 3 \, 8 4 \, 9 5 \, 11 6;
#X msg 327 484 0 0 \, 2 1 \, 4 2 \, 6 3 \, 7 4 \, 9 5 \, 10 6;
#X msg 327 510 0 0 \, 2 1 \, 4 2 \, 5 3 \, 7 4 \, 8 5 \, 10 6;
#X msg 327 536 0 0 \, 2 1 \, 3 2 \, 5 3 \, 6 4 \, 8 5 \, 10 6;
#X msg 327 562 0 0 \, 1 1 \, 3 2 \, 4 3 \, 6 4 \, 8 5 \, 10 6;
#X obj 105 350 sel 0 1 2 3 4 5 6 7 8 9 10 11 12 13;
#X text 124 135 Locrian;
#X text 124 165 Dorian;
#X text 124 180 Phrygian;
#X text 124 195 Lydian;
#X text 124 209 Mixolydian;
#X text 124 225 Melodic Ascending Minor;
#X text 124 241 Phrygian Raised Sixth;
#X text 124 255 Lydian Raised Fifth;
#X text 124 269 Lydian-Myxolydian;
#X text 124 285 Major Minor;
#X text 124 299 Locrian Sharp 2;
#X text 124 315 Alterd Scale;
#X text 124 121 Aeolian (Minor);
#X text 124 150 Ionian (Major);
#X obj 290 207 random 14;
#X obj 358 207 random 300;
#X obj 358 233 * 1000;
#X obj 199 104 tgl 15 0 empty empty empty 17 7 0 10 -262144 -1 -1 0
1;
#X obj 290 233 spigot 0;
#X text 219 103 Randomize;
#X obj 290 129 moses 1;
#X msg 290 155 0;
#X msg 329 155 1;
#X obj 225 618 outlet;
#X text 336 550 Altered Scale;
#X obj 290 181 metro 200000;
#X connect 0 0 28 0;
#X connect 8 0 52 0;
#X connect 9 0 52 0;
#X connect 10 0 52 0;
#X connect 11 0 52 0;
#X connect 12 0 52 0;
#X connect 13 0 52 0;
#X connect 14 0 52 0;
#X connect 21 0 52 0;
#X connect 22 0 52 0;
#X connect 23 0 52 0;
#X connect 24 0 52 0;
#X connect 25 0 52 0;
#X connect 26 0 52 0;
#X connect 27 0 52 0;
#X connect 28 0 8 0;
#X connect 28 1 9 0;
#X connect 28 2 10 0;
#X connect 28 3 11 0;
#X connect 28 4 12 0;
#X connect 28 5 13 0;
#X connect 28 6 14 0;
#X connect 28 7 21 0;
#X connect 28 8 22 0;
#X connect 28 9 23 0;
#X connect 28 10 24 0;
#X connect 28 11 25 0;
#X connect 28 12 26 0;
#X connect 28 13 27 0;
#X connect 43 0 47 0;
#X connect 44 0 45 0;
#X connect 45 0 54 1;
#X connect 46 0 49 0;
#X connect 47 0 0 0;
#X connect 49 0 50 0;
#X connect 49 1 51 0;
#X connect 50 0 47 1;
#X connect 50 0 54 0;
#X connect 51 0 47 1;
#X connect 51 0 54 0;
#X connect 54 0 44 0;
#X connect 54 0 43 0;
#X coords 0 -1 1 1 180 240 1 100 100;
