#N canvas 0 0 1440 878 10;
#X obj 38 4 +~ 1;
#X obj 195 -200 loadbang;
#X obj 79 -174 metro 50;
#X obj 38 -22 osc~ 0.05;
#X obj 208 -22 until;
#X msg 208 -74 10;
#X obj 208 56 i;
#X obj 240 56 + 1;
#X obj 208 108 pack f f;
#X msg 223 30 1;
#N canvas 0 22 763 508 (subpatch) 0;
#X array \$0-scale 7 float 1;
#A 0 0 1 3 5 7 8 10;
#X coords 0 12 6 0 200 140 1;
#X restore 480 -96 graph;
#X obj 272 56 +;
#X obj 272 -74 random 7;
#X obj 195 -174 metro 5000;
#X obj 211 190 hsl 128 15 0 1 0 1 empty empty empty -2 -8 0 10 #fcfcfc
#000000 #000000 5000 1;
#X obj 127 471 writesf~ 2;
#X msg 39 445 start;
#X msg 87 445 stop;
#X obj 287 4 * 12;
#X obj 287 -22 random 3;
#X obj 38 30 *~ 500;
#X obj 106 -22 random 2;
#X obj 125 82 line;
#X obj 110 108 +~;
#X obj 127 400 on_off;
#X obj 690 -96 load_scale;
#X text 226 190 Reverb Feedback;
#X obj 272 -48 tabread \$0-scale;
#X obj 690 154 tabwrite \$0-scale;
#X msg 137 445 open -bytes 4 Cave_Of_Creation.wav;
#X obj 287 30 +;
#X obj 208 4 t b b b;
#X obj 208 -48 t f b b;
#X obj 106 4 sel;
#X obj 110 134 s~ to_snapshot;
#X obj 92 -74 s bang_from_metro;
#X obj 349 4 sel;
#X msg 349 30 36;
#X obj 349 -22 random 4;
#X obj 50 215 catch~ left;
#X obj 323 215 catch~ right;
#X obj 294 108 pack f f;
#X obj 339 82 + 12;
#X obj 294 134 s to_route_2;
#X obj 208 134 s to_route_1;
#N canvas 0 472 1257 411 water_drops_low 0;
#X obj 242 55 snapshot~;
#X obj 349 55 route 1 2 3 4 5 6 7 8 9 10;
#X obj 242 3 r bang_from_metro;
#X obj 251 29 r~ to_snapshot;
#X obj 349 29 r to_route_1;
#X obj 214 81 stream 16000 200 12 600;
#X obj 214 107 stream 16000 200 12 600;
#X obj 214 133 stream 16000 200 12 600;
#X obj 214 159 stream 16000 200 12 600;
#X obj 214 185 stream 16000 200 12 600;
#X obj 214 211 stream 16000 200 12 600;
#X obj 214 237 stream 16000 200 12 600;
#X obj 214 263 stream 16000 200 12 600;
#X obj 214 289 stream 16000 200 12 600;
#X obj 214 315 stream 16000 200 12 600;
#X connect 0 0 5 0;
#X connect 0 0 6 0;
#X connect 0 0 7 0;
#X connect 0 0 8 0;
#X connect 0 0 9 0;
#X connect 0 0 10 0;
#X connect 0 0 11 0;
#X connect 0 0 12 0;
#X connect 0 0 13 0;
#X connect 0 0 14 0;
#X connect 1 0 5 1;
#X connect 1 1 6 1;
#X connect 1 2 7 1;
#X connect 1 3 8 1;
#X connect 1 4 9 1;
#X connect 1 5 10 1;
#X connect 1 6 11 1;
#X connect 1 7 12 1;
#X connect 1 8 13 1;
#X connect 1 9 14 1;
#X connect 2 0 0 0;
#X connect 3 0 0 0;
#X connect 4 0 1 0;
#X restore 568 54 pd water_drops_low;
#X msg 106 56 300 2500;
#N canvas -1191 397 1257 411 water_drops_high 0;
#X obj 242 55 snapshot~;
#X obj 349 55 route 1 2 3 4 5 6 7 8 9 10;
#X obj 242 3 r bang_from_metro;
#X obj 251 29 r~ to_snapshot;
#X obj 349 29 r to_route_3;
#X obj 214 81 stream 16000 200 2 100;
#X obj 214 107 stream 16000 200 2 100;
#X obj 214 133 stream 16000 200 2 100;
#X obj 214 159 stream 16000 200 2 100;
#X obj 214 185 stream 16000 200 2 100;
#X obj 214 211 stream 16000 200 2 100;
#X obj 214 237 stream 16000 200 2 100;
#X obj 214 263 stream 16000 200 2 100;
#X obj 214 289 stream 16000 200 2 100;
#X obj 214 315 stream 16000 200 2 100;
#X connect 0 0 5 0;
#X connect 0 0 6 0;
#X connect 0 0 7 0;
#X connect 0 0 8 0;
#X connect 0 0 9 0;
#X connect 0 0 10 0;
#X connect 0 0 11 0;
#X connect 0 0 12 0;
#X connect 0 0 13 0;
#X connect 0 0 14 0;
#X connect 1 0 5 1;
#X connect 1 1 6 1;
#X connect 1 2 7 1;
#X connect 1 3 8 1;
#X connect 1 4 9 1;
#X connect 1 5 10 1;
#X connect 1 6 11 1;
#X connect 1 7 12 1;
#X connect 1 8 13 1;
#X connect 1 9 14 1;
#X connect 2 0 0 0;
#X connect 3 0 0 0;
#X connect 4 0 1 0;
#X restore 562 106 pd water_drops_high;
#N canvas 0 472 1257 411 water_drops_normal 0;
#X obj 242 55 snapshot~;
#X obj 349 55 route 1 2 3 4 5 6 7 8 9 10;
#X obj 242 3 r bang_from_metro;
#X obj 251 29 r~ to_snapshot;
#X obj 349 29 r to_route_2;
#X obj 214 81 stream 16000 200 6 300;
#X obj 214 107 stream 16000 200 6 300;
#X obj 214 133 stream 16000 200 6 300;
#X obj 214 159 stream 16000 200 6 300;
#X obj 214 185 stream 16000 200 6 300;
#X obj 214 211 stream 16000 200 6 300;
#X obj 214 237 stream 16000 200 6 300;
#X obj 214 263 stream 16000 200 6 300;
#X obj 214 289 stream 16000 200 6 300;
#X obj 214 315 stream 16000 200 6 300;
#X connect 0 0 5 0;
#X connect 0 0 6 0;
#X connect 0 0 7 0;
#X connect 0 0 8 0;
#X connect 0 0 9 0;
#X connect 0 0 10 0;
#X connect 0 0 11 0;
#X connect 0 0 12 0;
#X connect 0 0 13 0;
#X connect 0 0 14 0;
#X connect 1 0 5 1;
#X connect 1 1 6 1;
#X connect 1 2 7 1;
#X connect 1 3 8 1;
#X connect 1 4 9 1;
#X connect 1 5 10 1;
#X connect 1 6 11 1;
#X connect 1 7 12 1;
#X connect 1 8 13 1;
#X connect 1 9 14 1;
#X connect 2 0 0 0;
#X connect 3 0 0 0;
#X connect 4 0 1 0;
#X restore 550 80 pd water_drops_normal;
#X obj 380 108 pack f f;
#X obj 380 134 s to_route_3;
#X msg 364 56 24;
#X obj 412 8 + 24;
#X obj 225 267 hip~ 300;
#X obj 127 267 hip~ 300;
#X obj 225 293 bp~ 1200 18;
#X obj 127 293 bp~ 1200 18;
#X msg 125 30 60 2500;
#X text 169 411 <- audio on/off;
#X obj 127 345 freezeverb 200;
#X obj 225 345 freezeverb 300;
#N canvas 679 111 450 561 pad_synth 0;
#X obj 168 366 osc~;
#X obj 168 314 +~;
#X obj 228 288 *~;
#X msg 168 262 \$1 2500;
#X obj 299 366 osc~;
#X obj 299 314 +~;
#X obj 243 262 *~ 2000;
#X obj 168 340 +~;
#X obj 299 340 +~;
#X obj 228 314 osc~ 4;
#X obj 228 340 *~ 30;
#X msg 299 262 \$1 2000;
#X obj 168 418 b~;
#X obj 299 418 b~;
#X obj 243 236 +~ 1;
#X obj 243 210 osc~ 0.05;
#X obj 168 158 route 1 2;
#X obj 168 288 line~;
#X obj 299 288 line~;
#X obj 228 184 osc~ 1864;
#X obj 168 236 mtof;
#X obj 299 236 mtof;
#X obj 168 132 r to_route_3;
#X obj 168 448 outlet~ L;
#X obj 299 448 outlet~ R;
#X obj 299 392 *~ 4e-05;
#X obj 168 392 *~ 4e-05;
#X connect 0 0 26 0;
#X connect 1 0 7 0;
#X connect 2 0 1 1;
#X connect 2 0 5 1;
#X connect 3 0 17 0;
#X connect 4 0 25 0;
#X connect 5 0 8 0;
#X connect 6 0 2 1;
#X connect 7 0 0 0;
#X connect 8 0 4 0;
#X connect 9 0 10 0;
#X connect 10 0 7 1;
#X connect 10 0 8 1;
#X connect 11 0 18 0;
#X connect 12 0 23 0;
#X connect 13 0 24 0;
#X connect 14 0 6 0;
#X connect 15 0 14 0;
#X connect 16 0 20 0;
#X connect 16 1 21 0;
#X connect 17 0 1 0;
#X connect 18 0 5 0;
#X connect 19 0 2 0;
#X connect 20 0 3 0;
#X connect 21 0 11 0;
#X connect 22 0 16 0;
#X connect 25 0 13 0;
#X connect 26 0 12 0;
#X restore 137 319 pd pad_synth;
#X obj 50 345 *~;
#X obj 323 345 *~;
#X obj 65 293 - 24;
#X obj 65 319 / 12;
#X obj 142 215 / 24;
#X obj 225 241 *~;
#X obj 127 241 *~;
#X obj 110 -49 bng 15 250 50 0 empty empty empty 17 7 0 10 #fcfcfc
#000000 #000000;
#X obj 222 -120 bng 15 250 50 0 empty empty empty 17 7 0 10 #fcfcfc
#000000 #000000;
#X obj 82 -116 bng 15 250 50 0 empty empty empty 17 7 0 10 #fcfcfc
#000000 #000000;
#X obj 503 219 unpackOSC;
#X obj 312 -151 import mrpeach;
#X obj 718 263 routeOSC /trowacv;
#X obj 697 318 routeOSC /jentik0 /jentik1 /jentik2 /jentik3;
#X obj 697 361 unpack f f;
#X floatatom 697 389 5 0 0 0 - - - 0;
#X floatatom 754 386 5 0 0 0 - - - 0;
#X obj 805 361 unpack f f;
#X floatatom 805 389 5 0 0 0 - - - 0;
#X floatatom 860 390 5 0 0 0 - - - 0;
#X obj 907 358 unpack f f;
#X floatatom 910 389 5 0 0 0 - - - 0;
#X floatatom 959 397 5 0 0 0 - - - 0;
#X obj 508 269 routeOSC /differ/beat;
#X msg 438 630 49 127 1;
#X msg 504 630 50 127 1;
#X msg 568 629 51 127 1;
#X msg 631 628 52 127 1;
#X obj 547 694 noteout;
#X msg 554 370 1;
#X obj 556 391 + 1;
#X obj 589 398 % 4;
#X floatatom 553 420 5 0 0 0 - - - 0;
#X obj 561 308 tgl 15 0 empty empty empty 17 7 0 10 #fcfcfc #000000
#000000 0 1;
#X obj 557 342 metro 200;
#X obj 417 403 unpack f f f f;
#X obj 436 329 print;
#X obj 504 185 udpreceive 12345;
#X obj 490 364 spigot;
#X obj 524 336 tgl 15 0 empty empty empty 17 7 0 10 #fcfcfc #000000
#000000 0 1;
#X obj 51 817 eucgui;
#X obj 51 1257 t b f b;
#X obj 229 1257 t b f b;
#X obj 221 638 i;
#X obj 251 638 + 1;
#X msg 236 621 0;
#X obj 221 703 i;
#X obj 251 703 + 1;
#X obj 221 660 % 6;
#X obj 221 681 sel 3;
#X obj 221 725 + 1;
#X text -46 1238 BEATS OUTLET ->;
#X text 251 727 MIDI CLOCK In;
#X msg 51 1301 49 127 1;
#X obj 138 1325 noteout;
#X obj 221 566 tgl 15 0 empty empty empty 17 7 0 10 #fcfcfc #000000
#000000 0 1;
#X obj 307 811 eucgui;
#X obj 307 1251 t b f b;
#X obj 485 1251 t b f b;
#X text 500 1232 <- ACCENTS OUTLET;
#X text 559 1271 <- DURATION (ms);
#X obj 394 1319 noteout;
#X msg 485 1295 52 127 1;
#X msg 229 1301 51 127 1;
#X msg 307 1295 50 127 1;
#X text 518 847 16STEP 4 BEAT 4 ROTATE 2 ACCENT 0 ROTATE;
#X obj 386 491 sel 1 0;
#X obj 385 521 t b b;
#X msg 386 544 0;
#X obj 381 573 spigot 1;
#X msg 449 520 1;
#X obj 499 492 sel 1 0;
#X obj 498 522 t b b;
#X msg 499 545 0;
#X obj 494 574 spigot 1;
#X msg 562 521 1;
#X obj 618 484 sel 1 0;
#X obj 617 514 t b b;
#X msg 618 537 0;
#X obj 613 566 spigot 1;
#X msg 681 513 1;
#X obj 734 484 sel 1 0;
#X obj 733 514 t b b;
#X msg 734 537 0;
#X obj 729 566 spigot 1;
#X msg 797 513 1;
#X obj 880 540 spigot;
#X obj 914 512 tgl 15 0 empty empty empty 17 7 0 10 #fcfcfc #000000
#000000 0 1;
#X obj 229 794 r equi1;
#X obj 485 789 r equi2;
#X obj 1094 998 s equi2;
#X obj 1019 997 s equi1;
#X msg 1127 961 stp 16;
#X msg 1091 857 preset 1;
#X msg 1127 894 acc 2;
#X msg 1127 939 bts 4;
#X msg 1126 917 rte 0;
#X msg 1028 962 stp 16;
#X msg 1028 939 bts 6;
#X msg 1025 916 rte 1;
#X msg 999 859 preset 1;
#X msg 1024 892 acc 2;
#X text 1043 785 Sesi Cue 1;
#X msg 1057 819 cue 1;
#X obj 896 994 s equi2;
#X obj 821 993 s equi1;
#X msg 929 957 stp 16;
#X msg 893 853 preset 1;
#X msg 929 890 acc 2;
#X msg 929 935 bts 4;
#X msg 928 913 rte 0;
#X msg 830 958 stp 16;
#X msg 830 935 bts 6;
#X msg 827 912 rte 1;
#X msg 801 855 preset 1;
#X msg 826 888 acc 2;
#X text 845 781 Sesi Cue 1;
#X msg 859 815 cue 1;
#X obj 1284 999 s equi2;
#X obj 1209 998 s equi1;
#X msg 1317 962 stp 16;
#X msg 1281 858 preset 1;
#X msg 1317 895 acc 2;
#X msg 1317 940 bts 4;
#X msg 1316 918 rte 0;
#X msg 1218 963 stp 16;
#X msg 1218 940 bts 6;
#X msg 1215 917 rte 1;
#X msg 1189 860 preset 1;
#X msg 1214 893 acc 2;
#X text 1233 786 Sesi Cue 1;
#X msg 1247 820 cue 1;
#X obj 440 146 vsl 15 128 0 127 0 0 empty empty empty 0 -9 0 10 #fcfcfc
#000000 #000000 0 1;
#X obj 390 316 / 127;
#X obj 17 -147 r jentikAmb1;
#X obj 220 -147 r jentikAmb2;
#X obj 121 -118 r jentikAmb3;
#X obj 386 348 * 1.5;
#N canvas 47 51 670 479 detectBeat 0;
#X obj 247 193 sel 1 0;
#X obj 246 223 t b b;
#X msg 247 246 0;
#X obj 242 275 spigot 1;
#X msg 310 222 1;
#X obj 243 134 inlet;
#X obj 237 344 outlet;
#X connect 0 0 1 0;
#X connect 0 1 4 0;
#X connect 1 0 2 0;
#X connect 1 1 3 0;
#X connect 2 0 3 1;
#X connect 3 0 6 0;
#X connect 4 0 3 1;
#X connect 5 0 0 0;
#X restore 816 713 pd detectBeat;
#X obj 816 743 s jentikAmb3;
#N canvas 47 51 670 479 detectBeat 0;
#X obj 247 193 sel 1 0;
#X obj 246 223 t b b;
#X msg 247 246 0;
#X obj 242 275 spigot 1;
#X msg 310 222 1;
#X obj 243 134 inlet;
#X obj 237 344 outlet;
#X connect 0 0 1 0;
#X connect 0 1 4 0;
#X connect 1 0 2 0;
#X connect 1 1 3 0;
#X connect 2 0 3 1;
#X connect 3 0 6 0;
#X connect 4 0 3 1;
#X connect 5 0 0 0;
#X restore 726 713 pd detectBeat;
#X obj 726 743 s jentikAmb2;
#N canvas 47 51 670 479 detectBeat 0;
#X obj 247 193 sel 1 0;
#X obj 246 223 t b b;
#X msg 247 246 0;
#X obj 242 275 spigot 1;
#X msg 310 222 1;
#X obj 243 134 inlet;
#X obj 237 344 outlet;
#X connect 0 0 1 0;
#X connect 0 1 4 0;
#X connect 1 0 2 0;
#X connect 1 1 3 0;
#X connect 2 0 3 1;
#X connect 3 0 6 0;
#X connect 4 0 3 1;
#X connect 5 0 0 0;
#X restore 638 713 pd detectBeat;
#X obj 638 743 s jentikAmb1;
#X obj 716 677 unpack f f f f;
#X obj 744 645 spigot;
#X obj 790 644 tgl 15 0 empty empty empty 17 7 0 10 #fcfcfc #000000
#000000 0 1;
#X obj 520 303 s beatOSC;
#X obj 741 617 r beatOSC;
#X obj 638 771 bng 15 250 50 0 empty empty empty 17 7 0 10 #fcfcfc
#000000 #000000;
#X obj 726 771 bng 15 250 50 0 empty empty empty 17 7 0 10 #fcfcfc
#000000 #000000;
#X obj 816 771 bng 15 250 50 0 empty empty empty 17 7 0 10 #fcfcfc
#000000 #000000;
#X obj 263 514 loadbang;
#X obj 221 595 metro 20;
#X floatatom 227 525 5 0 0 0 - - - 0;
#X msg 272 566 20;
#X obj 710 1101 metro;
#X connect 0 0 20 0;
#X connect 1 0 2 0;
#X connect 1 0 13 0;
#X connect 3 0 0 0;
#X connect 4 0 31 0;
#X connect 5 0 32 0;
#X connect 6 0 7 0;
#X connect 6 0 8 0;
#X connect 6 0 41 0;
#X connect 6 0 49 0;
#X connect 7 0 6 1;
#X connect 8 0 44 0;
#X connect 9 0 6 1;
#X connect 11 0 8 1;
#X connect 11 0 42 0;
#X connect 11 0 52 0;
#X connect 12 0 27 0;
#X connect 14 0 59 1;
#X connect 14 0 60 1;
#X connect 16 0 15 0;
#X connect 17 0 15 0;
#X connect 18 0 30 0;
#X connect 19 0 18 0;
#X connect 20 0 23 0;
#X connect 21 0 33 0;
#X connect 22 0 23 1;
#X connect 22 0 64 0;
#X connect 23 0 34 0;
#X connect 24 0 15 0;
#X connect 24 1 15 1;
#X connect 25 0 28 0;
#X connect 27 0 11 0;
#X connect 29 0 15 0;
#X connect 30 0 11 1;
#X connect 31 0 6 0;
#X connect 31 1 12 0;
#X connect 31 2 19 0;
#X connect 32 0 4 0;
#X connect 32 1 9 0;
#X connect 32 2 38 0;
#X connect 33 0 46 0;
#X connect 33 1 57 0;
#X connect 36 0 37 0;
#X connect 36 1 51 0;
#X connect 37 0 30 1;
#X connect 38 0 36 0;
#X connect 39 0 62 0;
#X connect 39 0 68 0;
#X connect 40 0 63 0;
#X connect 40 0 67 0;
#X connect 41 0 43 0;
#X connect 42 0 41 1;
#X connect 46 0 22 0;
#X connect 49 0 50 0;
#X connect 51 0 30 1;
#X connect 52 0 49 1;
#X connect 53 0 55 0;
#X connect 54 0 56 0;
#X connect 55 0 60 0;
#X connect 56 0 59 0;
#X connect 57 0 22 0;
#X connect 59 0 24 0;
#X connect 59 1 24 1;
#X connect 60 0 24 1;
#X connect 60 1 24 0;
#X connect 61 0 59 0;
#X connect 61 1 60 0;
#X connect 62 0 24 0;
#X connect 63 0 24 1;
#X connect 64 0 65 0;
#X connect 65 0 62 1;
#X connect 65 0 63 1;
#X connect 65 0 66 0;
#X connect 66 0 68 1;
#X connect 66 0 67 1;
#X connect 67 0 53 0;
#X connect 68 0 54 0;
#X connect 69 0 21 0;
#X connect 70 0 5 0;
#X connect 71 0 35 0;
#X connect 72 0 74 0;
#X connect 72 0 85 0;
#X connect 74 0 75 0;
#X connect 75 0 76 0;
#X connect 75 1 79 0;
#X connect 75 2 82 0;
#X connect 76 0 77 0;
#X connect 76 1 78 0;
#X connect 79 0 80 0;
#X connect 79 1 81 0;
#X connect 82 0 83 0;
#X connect 82 1 84 0;
#X connect 85 0 98 0;
#X connect 85 0 100 0;
#X connect 85 0 209 0;
#X connect 86 0 90 0;
#X connect 87 0 90 0;
#X connect 88 0 90 0;
#X connect 89 0 90 0;
#X connect 91 0 92 0;
#X connect 92 0 93 0;
#X connect 92 0 94 0;
#X connect 93 0 92 1;
#X connect 95 0 96 0;
#X connect 96 0 91 0;
#X connect 97 0 128 0;
#X connect 97 1 133 0;
#X connect 97 2 138 0;
#X connect 97 3 143 0;
#X connect 99 0 72 0;
#X connect 100 0 97 0;
#X connect 100 0 148 0;
#X connect 101 0 100 1;
#X connect 102 0 103 0;
#X connect 102 1 104 0;
#X connect 103 0 115 0;
#X connect 104 0 125 0;
#X connect 105 0 106 0;
#X connect 105 0 110 0;
#X connect 106 0 105 1;
#X connect 107 0 108 1;
#X connect 107 0 105 1;
#X connect 108 0 109 0;
#X connect 108 0 112 0;
#X connect 109 0 108 1;
#X connect 110 0 111 0;
#X connect 111 0 108 0;
#X connect 112 0 102 0;
#X connect 112 0 118 0;
#X connect 115 0 116 0;
#X connect 117 0 215 0;
#X connect 118 0 119 0;
#X connect 118 1 120 0;
#X connect 119 0 126 0;
#X connect 120 0 124 0;
#X connect 124 0 123 0;
#X connect 125 0 116 0;
#X connect 126 0 123 0;
#X connect 128 0 129 0;
#X connect 128 1 132 0;
#X connect 129 0 130 0;
#X connect 129 1 131 0;
#X connect 130 0 131 1;
#X connect 131 0 86 0;
#X connect 132 0 131 1;
#X connect 133 0 134 0;
#X connect 133 1 137 0;
#X connect 134 0 135 0;
#X connect 134 1 136 0;
#X connect 135 0 136 1;
#X connect 136 0 87 0;
#X connect 137 0 136 1;
#X connect 138 0 139 0;
#X connect 138 1 142 0;
#X connect 139 0 140 0;
#X connect 139 1 141 0;
#X connect 140 0 141 1;
#X connect 141 0 88 0;
#X connect 142 0 141 1;
#X connect 143 0 144 0;
#X connect 143 1 147 0;
#X connect 144 0 145 0;
#X connect 144 1 146 0;
#X connect 145 0 146 1;
#X connect 146 0 89 0;
#X connect 147 0 146 1;
#X connect 148 0 86 0;
#X connect 149 0 148 1;
#X connect 150 0 102 1;
#X connect 151 0 118 1;
#X connect 154 0 152 0;
#X connect 155 0 154 0;
#X connect 155 0 157 0;
#X connect 155 0 158 0;
#X connect 155 0 156 0;
#X connect 156 0 152 0;
#X connect 157 0 152 0;
#X connect 158 0 152 0;
#X connect 159 0 153 0;
#X connect 160 0 153 0;
#X connect 161 0 153 0;
#X connect 162 0 159 0;
#X connect 162 0 160 0;
#X connect 162 0 161 0;
#X connect 162 0 163 0;
#X connect 163 0 153 0;
#X connect 165 0 162 0;
#X connect 165 0 155 0;
#X connect 168 0 166 0;
#X connect 169 0 168 0;
#X connect 169 0 171 0;
#X connect 169 0 172 0;
#X connect 169 0 170 0;
#X connect 170 0 166 0;
#X connect 171 0 166 0;
#X connect 172 0 166 0;
#X connect 173 0 167 0;
#X connect 174 0 167 0;
#X connect 175 0 167 0;
#X connect 176 0 173 0;
#X connect 176 0 174 0;
#X connect 176 0 175 0;
#X connect 176 0 177 0;
#X connect 177 0 167 0;
#X connect 179 0 176 0;
#X connect 179 0 169 0;
#X connect 182 0 180 0;
#X connect 183 0 182 0;
#X connect 183 0 185 0;
#X connect 183 0 186 0;
#X connect 183 0 184 0;
#X connect 184 0 180 0;
#X connect 185 0 180 0;
#X connect 186 0 180 0;
#X connect 187 0 181 0;
#X connect 188 0 181 0;
#X connect 189 0 181 0;
#X connect 190 0 187 0;
#X connect 190 0 188 0;
#X connect 190 0 189 0;
#X connect 190 0 191 0;
#X connect 191 0 181 0;
#X connect 193 0 190 0;
#X connect 193 0 183 0;
#X connect 194 0 195 0;
#X connect 195 0 199 0;
#X connect 196 0 71 0;
#X connect 197 0 70 0;
#X connect 198 0 69 0;
#X connect 199 0 24 2;
#X connect 200 0 201 0;
#X connect 200 0 213 0;
#X connect 202 0 203 0;
#X connect 202 0 212 0;
#X connect 204 0 205 0;
#X connect 204 0 211 0;
#X connect 206 0 204 0;
#X connect 206 1 202 0;
#X connect 206 2 200 0;
#X connect 207 0 206 0;
#X connect 208 0 207 1;
#X connect 210 0 207 0;
#X connect 214 0 217 0;
#X connect 215 0 105 0;
#X connect 216 0 215 1;
#X connect 217 0 215 1;
