#N canvas -1707 120 1440 878 12;
#X obj 106 287 step_seq_16 A;
#X obj 104 506 step_seq_16 B;
#X obj 108 395 step_seq_16 C;
#X obj 105 613 step_seq_16 D;
#X obj 107 109 tgl 45 0 empty empty ALL 17 7 0 10 #ff0400 #000000 #000000
0 1;
#X obj 303 272 r reset-all;
#X obj 303 373 r reset-all;
#X obj 301 491 r reset-all;
#X obj 304 585 r reset-all;
#X obj 163 107 bng 45 250 50 0 empty empty SYNC 17 7 0 10 #ff0400 #000000
#000000;
#X obj 162 158 s reset-all;
#X obj 718 314 tgl 45 0 empty empty ALL 17 7 0 10 #ff0400 #000000 #000000
0 1;
#X obj 717 424 tgl 45 0 empty empty ALL 17 7 0 10 #ff0400 #000000 #000000
0 1;
#X obj 710 528 tgl 45 0 empty empty ALL 17 7 0 10 #ff0400 #000000 #000000
0 1;
#X obj 712 622 tgl 45 0 empty empty ALL 17 7 0 10 #ff0400 #000000 #000000
0 1;
#X obj 498 271 r preset-all;
#X obj 498 376 r preset-all;
#X obj 493 488 r preset-all;
#X obj 496 591 r preset-all;
#X msg 791 255 0;
#X msg 830 255 1;
#X msg 869 255 2;
#X msg 792 282 3;
#X msg 828 282 4;
#X obj 599 272 r load-all;
#X obj 599 374 r load-all;
#X obj 597 489 r load-all;
#X obj 601 595 r load-all;
#X obj 838 346 s preset-all;
#X obj 815 374 s load-all;
#X obj 824 471 s reset-all;
#X obj 543 175 tgl 45 0 empty empty ALL 17 7 0 10 #ff0400 #000000 #000000
0 1;
#X floatatom 122 209 5 0 0 2 Tempo\ A - - 16;
#X floatatom 204 209 5 0 0 2 Tempo\ B - - 16;
#X floatatom 283 209 5 0 0 2 Tempo\ C - - 16;
#X floatatom 367 209 5 0 0 2 Tempo\ D - - 16;
#X obj 251 119 loadbang;
#X obj 400 262 loadbang;
#X msg 408 240 1;
#X msg 866 282 5;
#X obj 698 272 r save-all;
#X obj 714 377 r save-all;
#X obj 714 471 r save-all;
#X obj 712 579 r save-all;
#X obj 690 175 bng 45 250 50 0 empty empty SAVE\\\ ALL\\\ PRESET 17
7 0 10 #00faff #000000 #000000;
#X obj 691 232 s save-all;
#X obj 382 127 hradio 30 1 0 12 empty empty empty 0 -8 0 10 #fcfcfc
#000000 #000000 0;
#X msg 125 162 0;
#X obj 792 317 t b a a;
#X text 390 107 1;
#X text 419 107 2;
#X text 450 107 3;
#X text 479 107 4;
#X text 506 107 5;
#X text 535 107 6;
#X text 569 107 7;
#X text 598 107 8;
#X text 631 107 9;
#X text 660 107 10;
#X text 688 107 11;
#X text 717 108 12;
#X obj 458 175 bng 45 250 50 0 empty empty PLAY\\\ ALL 17 7 0 10 #00ff04
#000000 #000000;
#X obj 458 232 s play-all;
#X msg 46 92 1, f 2;
#X obj 46 62 r play-all;
#X obj 27 542 s B-midi;
#X obj 30 640 s D-midi;
#X obj 792 433 t b b;
#X obj 793 555 s play-all;
#X msg 792 497 1;
#X obj 611 175 tgl 45 0 empty empty AUTO\\\ PLAY 17 7 0 10 #fcfcfc
#000000 #000000 0 1;
#X obj 792 528 spigot;
#X msg 793 579;
#X obj 759 116 loadbang;
#X text 304 622 KOBEL;
#X obj 818 185 sel 49 50 51 52;
#X obj 818 210 tgl 15 0 empty empty empty 17 7 0 10 #fcfcfc #000000
#000000 0 1;
#X obj 853 210 tgl 15 0 empty empty empty 17 7 0 10 #fcfcfc #000000
#000000 0 1;
#X obj 881 210 tgl 15 0 empty empty empty 17 7 0 10 #fcfcfc #000000
#000000 0 1;
#X obj 912 210 tgl 15 0 empty empty empty 17 7 0 10 #fcfcfc #000000
#000000 0 1;
#X text 328 404 GRANIT;
#X obj 28 330 s C-midi;
#X obj 31 438 s A-midi;
#X text 326 517 WOODBLOCK L;
#X text 338 298 WOODBLOCK S;
#X text 338 401 WOODBLOCK L;
#X text 311 513 GRANIT;
#X text 355 298 WODBLOCK S;
#N canvas 47 51 1069 734 archive 0;
#X floatatom 353 76 5 0 0 0 - - - 0;
#X msg 225 342 49 127 1;
#X obj 193 316 t b b;
#X obj 193 289 bng 15 250 50 0 empty empty empty 17 7 0 10 #fcfcfc
#000000 #000000;
#X obj 297 317 t b b;
#X obj 297 290 bng 15 250 50 0 empty empty empty 17 7 0 10 #fcfcfc
#000000 #000000;
#X obj 297 367 del 60;
#X obj 403 319 t b b;
#X obj 403 292 bng 15 250 50 0 empty empty empty 17 7 0 10 #fcfcfc
#000000 #000000;
#X obj 506 319 t b b;
#X obj 506 292 bng 15 250 50 0 empty empty empty 17 7 0 10 #fcfcfc
#000000 #000000;
#X msg 329 343 51 127 1;
#X msg 435 345 50 127 1;
#X msg 538 345 52 127 1;
#X msg 526 407 52 0 1;
#X msg 423 395 50 0 1;
#X msg 323 395 51 0 1;
#X msg 179 390 49 0 1;
#X obj 403 369 del 60;
#X obj 506 369 del 60;
#X obj 180 359 del 60;
#X msg 440 253 30;
#X msg 385 254 100;
#X obj 283 173 metro 1000;
#X obj 330 114 bng 15 250 50 0 empty empty empty 17 7 0 10 #fcfcfc
#000000 #000000;
#X obj 283 124 tgl 15 0 empty empty empty 17 7 0 10 #fcfcfc #000000
#000000 0 1;
#X floatatom 382 134 5 0 0 0 - - - 0;
#X obj 304 507 noteout;
#X obj 216 235 del 10;
#X obj 409 218 del 60;
#X obj 350 222 del 50;
#X obj 292 238 del 30;
#X msg 956 206 \$1;
#X obj 956 285 pipe 200;
#X msg 956 312 \$1 0;
#X obj 914 350 noteout 1;
#X msg 870 204 \$1;
#X obj 870 283 pipe 200;
#X msg 870 310 \$1 0;
#X obj 828 348 noteout 1;
#X msg 828 127 51 127;
#X msg 779 205 \$1;
#X obj 779 284 pipe 200;
#X msg 779 311 \$1 0;
#X obj 737 349 noteout 1;
#X msg 693 207 \$1;
#X obj 693 286 pipe 200;
#X msg 693 313 \$1 0;
#X obj 651 351 noteout 1;
#X msg 651 130 49 127;
#X msg 737 128 50 127;
#X msg 914 129 52 127;
#X obj 651 62 inlet;
#X obj 737 62 inlet;
#X obj 828 62 inlet;
#X obj 914 62 inlet;
#X obj 1006 59 inlet;
#X connect 1 0 27 0;
#X connect 2 0 20 0;
#X connect 2 1 1 0;
#X connect 3 0 2 0;
#X connect 4 0 6 0;
#X connect 4 1 11 0;
#X connect 5 0 4 0;
#X connect 6 0 16 0;
#X connect 6 0 27 0;
#X connect 7 0 18 0;
#X connect 7 1 12 0;
#X connect 8 0 7 0;
#X connect 9 0 19 0;
#X connect 9 1 13 0;
#X connect 10 0 9 0;
#X connect 11 0 27 0;
#X connect 12 0 27 0;
#X connect 13 0 27 0;
#X connect 14 0 27 0;
#X connect 15 0 27 0;
#X connect 16 0 27 0;
#X connect 17 0 27 0;
#X connect 18 0 15 0;
#X connect 19 0 14 0;
#X connect 20 0 17 0;
#X connect 21 0 20 1;
#X connect 21 0 6 1;
#X connect 21 0 18 1;
#X connect 21 0 19 1;
#X connect 22 0 20 1;
#X connect 22 0 6 1;
#X connect 22 0 18 1;
#X connect 22 0 19 1;
#X connect 23 0 3 0;
#X connect 23 0 28 0;
#X connect 23 0 29 0;
#X connect 23 0 30 0;
#X connect 23 0 31 0;
#X connect 25 0 23 0;
#X connect 26 0 23 1;
#X connect 28 0 3 0;
#X connect 29 0 10 0;
#X connect 30 0 8 0;
#X connect 31 0 5 0;
#X connect 32 0 33 0;
#X connect 33 0 34 0;
#X connect 34 0 35 0;
#X connect 36 0 37 0;
#X connect 37 0 38 0;
#X connect 38 0 39 0;
#X connect 40 0 36 0;
#X connect 40 0 39 0;
#X connect 41 0 42 0;
#X connect 42 0 43 0;
#X connect 43 0 44 0;
#X connect 45 0 46 0;
#X connect 46 0 47 0;
#X connect 47 0 48 0;
#X connect 49 0 45 0;
#X connect 49 0 48 0;
#X connect 50 0 41 0;
#X connect 50 0 44 0;
#X connect 51 0 32 0;
#X connect 51 0 35 0;
#X connect 52 0 49 0;
#X connect 53 0 50 0;
#X connect 54 0 40 0;
#X connect 55 0 51 0;
#X connect 56 0 33 1;
#X connect 56 0 37 1;
#X connect 56 0 42 1;
#X connect 56 0 46 1;
#X restore 962 754 pd archive;
#N canvas 68 74 1069 741 osc 0;
#X obj 287 94 r B-midi;
#X obj 353 94 r C-midi;
#X obj 417 94 r D-midi;
#X obj 224 94 r A-midi;
#X obj 184 267 udpsend;
#X msg 128 88 disconnect;
#X obj 197 156 packOSC;
#X msg 196 129 send /A 1;
#X msg 115 59 connect 127.0.0.1 9999;
#X obj 287 155 packOSC;
#X obj 378 152 packOSC;
#X obj 468 153 packOSC;
#X msg 467 126 send /D 1;
#X obj 65 155 tgl 15 0 empty empty 1=connected 20 8 0 8 #00fc04 #f8fc00
#000000 0 1;
#X msg 286 127 send /C 1;
#X msg 377 125 send /B 1;
#X obj 115 25 inlet;
#X obj 156 317 outlet;
#X obj 322 22 inlet;
#X connect 0 0 14 0;
#X connect 1 0 15 0;
#X connect 2 0 12 0;
#X connect 3 0 7 0;
#X connect 4 0 13 0;
#X connect 4 0 17 0;
#X connect 5 0 4 0;
#X connect 6 0 4 0;
#X connect 7 0 6 0;
#X connect 8 0 4 0;
#X connect 9 0 4 0;
#X connect 10 0 4 0;
#X connect 11 0 4 0;
#X connect 12 0 11 0;
#X connect 14 0 9 0;
#X connect 15 0 10 0;
#X connect 16 0 8 0;
#X connect 18 0 5 0;
#X restore 954 214 pd osc;
#X obj 954 248 tgl 45 0 empty empty 1=connected 20 8 0 8 #00fc04 #f8fc00
#000000 0 1;
#X obj 954 159 bng 45 250 50 0 empty empty empty 17 7 0 10 #fcfcfc
#000000 #000000;
#X obj 846 675 r A-midi;
#X obj 919 675 r B-midi;
#X obj 991 675 r C-midi;
#X obj 1070 674 r D-midi;
#X obj 954 302 bng 45 250 50 0 empty empty empty 17 7 0 10 #fcfcfc
#000000 #000000;
#X floatatom 1201 662 5 0 0 0 - - - 0;
#X msg 1092 703 50;
#X msg 1129 706 100;
#X msg 1174 706 30;
#X floatatom 1228 705 5 0 0 0 - - - 0;
#X obj 32 291 bng 15 250 50 0 empty empty empty 17 7 0 10 #fcfcfc #000000
#000000;
#X obj 29 402 bng 15 250 50 0 empty empty empty 17 7 0 10 #fcfcfc #000000
#000000;
#X obj 25 506 bng 15 250 50 0 empty empty empty 17 7 0 10 #fcfcfc #000000
#000000;
#X obj 18 613 bng 15 250 50 0 empty empty empty 17 7 0 10 #fcfcfc #000000
#000000;
#X text 1301 564 Sesi Cue 1;
#N canvas 47 51 670 479 detectBeat 0;
#X obj 247 193 sel 1 0;
#X obj 246 223 t b b;
#X msg 247 246 0;
#X obj 242 275 spigot 1;
#X msg 310 222 1;
#X obj 243 134 inlet;
#X obj 237 344 outlet;
#X connect 0 0 1 0;
#X connect 0 1 4 0;
#X connect 1 0 2 0;
#X connect 1 1 3 0;
#X connect 2 0 3 1;
#X connect 3 0 6 0;
#X connect 4 0 3 1;
#X connect 5 0 0 0;
#X restore 1272 496 pd detectBeat;
#X obj 1272 526 s jentikAmb3;
#N canvas 47 51 670 479 detectBeat 0;
#X obj 247 193 sel 1 0;
#X obj 246 223 t b b;
#X msg 247 246 0;
#X obj 242 275 spigot 1;
#X msg 310 222 1;
#X obj 243 134 inlet;
#X obj 237 344 outlet;
#X connect 0 0 1 0;
#X connect 0 1 4 0;
#X connect 1 0 2 0;
#X connect 1 1 3 0;
#X connect 2 0 3 1;
#X connect 3 0 6 0;
#X connect 4 0 3 1;
#X connect 5 0 0 0;
#X restore 1182 496 pd detectBeat;
#X obj 1182 526 s jentikAmb2;
#N canvas 47 51 670 479 detectBeat 0;
#X obj 247 193 sel 1 0;
#X obj 246 223 t b b;
#X msg 247 246 0;
#X obj 242 275 spigot 1;
#X msg 310 222 1;
#X obj 243 134 inlet;
#X obj 237 344 outlet;
#X connect 0 0 1 0;
#X connect 0 1 4 0;
#X connect 1 0 2 0;
#X connect 1 1 3 0;
#X connect 2 0 3 1;
#X connect 3 0 6 0;
#X connect 4 0 3 1;
#X connect 5 0 0 0;
#X restore 1094 496 pd detectBeat;
#X obj 1094 526 s jentikAmb1;
#X obj 1172 460 unpack f f f f;
#X obj 1200 428 spigot;
#X obj 1246 427 tgl 15 0 empty empty empty 17 7 0 10 #fcfcfc #000000
#000000 0 1;
#X obj 1197 400 r beatOSC;
#X obj 1094 554 bng 15 250 50 0 empty empty empty 17 7 0 10 #fcfcfc
#000000 #000000;
#X obj 1182 554 bng 15 250 50 0 empty empty empty 17 7 0 10 #fcfcfc
#000000 #000000;
#X obj 1272 554 bng 15 250 50 0 empty empty empty 17 7 0 10 #fcfcfc
#000000 #000000;
#X obj 1134 249 unpackOSC;
#X obj 1139 299 routeOSC /differ/beat;
#X obj 1151 333 s beatOSC;
#X obj 1136 215 udpreceive 12345;
#X floatatom 1115 443 5 0 0 0 - - - 0;
#X obj 1115 466;
#X obj 1079 394 print;
#X obj 1072 351 spigot;
#X obj 1108 315 tgl 15 0 empty empty empty 17 7 0 10 #fcfcfc #000000
#000000 0 1;
#X obj 1268 602 s A-midi;
#X obj 1187 589 s B-midi;
#X obj 1082 584 s C-midi;
#X msg 324 119 133;
#X obj 883 72 tgl 15 0 empty empty empty 17 7 0 10 #fcfcfc #000000
#000000 0 1;
#X obj 905 32 metro 1000;
#X text 481 754 1;
#X msg 759 142 0;
#X obj 910 78 i;
#X obj 910 102 + 1;
#X floatatom 954 57 4 0 0 0 - - - 36;
#X msg 835 69 reset;
#X msg 867 99 0;
#X obj 805 32 r stopwatch;
#X obj 873 419 s stopwatch;
#X obj 1113 64 tgl 15 0 empty empty empty 17 7 0 10 #fcfcfc #000000
#000000 0 1;
#X obj 1140 70 i;
#X obj 1140 94 + 1;
#X floatatom 1184 49 4 0 0 0 - - - 36;
#X msg 1065 61 reset;
#X msg 1097 91 0;
#X msg 1010 11 reset;
#X obj 107 51 tgl 45 0 empty empty empty 17 7 0 10 #00faff #000000
#000000 0 1;
#X connect 0 0 81 0;
#X connect 0 1 143 0;
#X connect 1 0 65 0;
#X connect 2 0 82 0;
#X connect 3 0 66 0;
#X connect 4 0 0 0;
#X connect 4 0 1 0;
#X connect 4 0 2 0;
#X connect 4 0 3 0;
#X connect 5 0 0 2;
#X connect 6 0 1 2;
#X connect 7 0 2 2;
#X connect 8 0 3 2;
#X connect 9 0 10 0;
#X connect 11 0 0 3;
#X connect 12 0 1 3;
#X connect 13 0 2 3;
#X connect 14 0 3 3;
#X connect 15 0 0 4;
#X connect 16 0 1 4;
#X connect 17 0 2 4;
#X connect 18 0 3 4;
#X connect 19 0 48 0;
#X connect 20 0 48 0;
#X connect 21 0 48 0;
#X connect 22 0 48 0;
#X connect 23 0 48 0;
#X connect 24 0 0 5;
#X connect 25 0 1 5;
#X connect 26 0 2 5;
#X connect 27 0 3 5;
#X connect 31 0 11 0;
#X connect 31 0 12 0;
#X connect 31 0 13 0;
#X connect 31 0 14 0;
#X connect 32 0 0 1;
#X connect 32 0 35 0;
#X connect 32 0 34 0;
#X connect 32 0 33 0;
#X connect 33 0 1 1;
#X connect 34 0 2 1;
#X connect 35 0 3 1;
#X connect 36 0 132 0;
#X connect 37 0 38 0;
#X connect 38 0 31 0;
#X connect 39 0 48 0;
#X connect 40 0 0 6;
#X connect 41 0 1 6;
#X connect 42 0 2 6;
#X connect 43 0 3 6;
#X connect 44 0 45 0;
#X connect 46 0 48 0;
#X connect 47 0 4 0;
#X connect 48 0 67 0;
#X connect 48 1 29 0;
#X connect 48 2 28 0;
#X connect 61 0 62 0;
#X connect 63 0 0 0;
#X connect 63 0 1 0;
#X connect 63 0 2 0;
#X connect 63 0 3 0;
#X connect 64 0 63 0;
#X connect 67 0 69 0;
#X connect 69 0 71 0;
#X connect 70 0 71 1;
#X connect 71 0 68 0;
#X connect 73 0 136 0;
#X connect 75 0 76 0;
#X connect 75 1 77 0;
#X connect 75 2 78 0;
#X connect 75 3 79 0;
#X connect 76 0 11 0;
#X connect 77 0 12 0;
#X connect 78 0 13 0;
#X connect 79 0 14 0;
#X connect 89 0 90 0;
#X connect 91 0 89 0;
#X connect 96 0 89 1;
#X connect 98 0 88 4;
#X connect 99 0 88 4;
#X connect 100 0 88 4;
#X connect 101 0 88 4;
#X connect 102 0 81 0;
#X connect 103 0 82 0;
#X connect 104 0 65 0;
#X connect 105 0 66 0;
#X connect 107 0 108 0;
#X connect 107 0 119 0;
#X connect 109 0 110 0;
#X connect 109 0 118 0;
#X connect 111 0 112 0;
#X connect 111 0 117 0;
#X connect 113 0 111 0;
#X connect 113 0 124 0;
#X connect 113 1 109 0;
#X connect 113 2 107 0;
#X connect 114 0 113 0;
#X connect 115 0 114 1;
#X connect 116 0 114 0;
#X connect 117 0 131 0;
#X connect 118 0 130 0;
#X connect 119 0 129 0;
#X connect 120 0 121 0;
#X connect 121 0 122 0;
#X connect 121 0 127 0;
#X connect 123 0 120 0;
#X connect 124 0 125 0;
#X connect 127 0 126 0;
#X connect 128 0 127 1;
#X connect 132 0 32 0;
#X connect 133 0 134 0;
#X connect 134 0 137 0;
#X connect 134 0 145 0;
#X connect 136 0 70 0;
#X connect 137 0 138 0;
#X connect 138 0 137 1;
#X connect 138 0 139 0;
#X connect 140 0 134 0;
#X connect 140 0 141 0;
#X connect 141 0 137 1;
#X connect 142 0 140 0;
#X connect 145 0 146 0;
#X connect 146 0 145 1;
#X connect 146 0 147 0;
#X connect 148 0 149 0;
#X connect 149 0 145 1;
#X connect 150 0 148 0;
#X connect 150 0 140 0;
#X connect 151 0 150 0;
#X connect 151 0 4 0;
#X coords 0 -1 1 1 710 610 1 100 100;
