#N canvas 423 478 284 238 10;
#X obj 9 9 inlet~ L;
#X obj 83 9 inlet~ R;
#X obj 19 61 dac~;
#X obj 9 87 outlet~ L;
#X obj 83 87 outlet~ R;
#X obj 9 35 *~ 6;
#X obj 83 35 *~ 6;
#X connect 0 0 5 0;
#X connect 1 0 6 0;
#X connect 5 0 2 0;
#X connect 5 0 3 0;
#X connect 6 0 2 1;
#X connect 6 0 4 0;
