#N canvas 50 274 332 403 10;
#X obj 110 110 tgl 15 0 empty empty empty 17 7 0 10 #fcfcfc #000000
#000000 0 1;
#X obj 68 150 moses 1;
#X msg 6 176 0 0;
#X obj 35 202 line~;
#X obj 20 228 *~;
#X obj 88 228 *~;
#X obj 20 74 inlet~ L;
#X obj 88 74 inlet~ R;
#X obj 20 340 outlet~ L;
#X obj 88 340 outlet~ R;
#X obj 6 150 loadbang;
#X msg 35 176 0 1000;
#X msg 107 176 1 1000;
#X obj 30 314 dac~;
#X obj 126 275 *~;
#X obj 187 276 *~;
#X obj 126 296;
#X obj 227 69 inlet gain;
#X connect 0 0 1 0;
#X connect 1 0 11 0;
#X connect 1 1 12 0;
#X connect 2 0 3 0;
#X connect 3 0 4 1;
#X connect 3 0 5 1;
#X connect 4 0 8 0;
#X connect 4 0 15 0;
#X connect 5 0 9 0;
#X connect 5 0 14 0;
#X connect 6 0 4 0;
#X connect 7 0 5 0;
#X connect 10 0 2 0;
#X connect 11 0 3 0;
#X connect 12 0 3 0;
#X connect 14 0 13 1;
#X connect 14 0 16 0;
#X connect 15 0 13 0;
#X connect 17 0 14 1;
#X connect 17 0 15 1;
#X coords 0 -1 1 1 35 35 2 100 100;
