#N canvas -1265 340 1265 718 10;
#X obj 2 2 cnv 15 96 76 empty VCF presets 4 7 0 14 #e0e0e0 #404040
0;
#X obj 11 34 hradio 15 1 0 5 \$0-presetIndex empty slots 0 -8 0 10
#fcfcfc #000000 #000000 0;
#X obj 81 149 inlet, f 7;
#X obj 64 56 bng 15 250 50 0 \$0-load empty L 17 7 0 10 #fcfcfc #000000
#000000;
#X obj 15 56 bng 15 250 50 0 \$0-save empty S 17 7 0 10 #fcfcfc #000000
#000000;
#X obj 434 31 inlet;
#X obj 17 84 outlet;
#X msg 79 288 rewind;
#X obj 81 597 textfile;
#X msg 120 324 clear;
#X obj 82 212 list split 1;
#X obj 434 71 s \$0-presetname;
#X obj 291 520 r \$0-presetIndex;
#X obj 254 544 pack s f;
#X obj 317 376 r \$0-presetname;
#X msg 254 477 bang;
#X obj 165 439 list split 1;
#X obj 164 367 until;
#X obj 164 405 list append;
#X obj 264 407 bang;
#X msg 253 574 write ./presets/\$1_\$2.txt cr;
#X msg 163 477 add2 \$1;
#X obj 77 247 t b b l b b;
#X msg 461 438 rewind;
#X obj 466 522 textfile;
#X obj 504 324 r \$0-presetIndex;
#X obj 428 351 pack s f;
#X obj 507 298 r \$0-presetname;
#X msg 428 267 bang;
#X msg 525 478 bang;
#X obj 438 220 t b b b;
#X msg 428 376 read ./presets/\$1_\$2.txt;
#X obj 468 569 outlet;
#X obj 110 178 print hello;
#X obj 326 420 tosymbol;
#X obj 297 458 symbol;
#X obj 219 568 print;
#X obj 645 12 inlet;
#X obj 780 30 inlet;
#X obj 622 66 s \$0-presetIndex;
#X floatatom 52 14 5 0 0 0 - - - 0;
#X obj 909 26 inlet;
#X connect 2 0 10 0;
#X connect 2 0 33 0;
#X connect 3 0 30 0;
#X connect 4 0 6 0;
#X connect 5 0 11 0;
#X connect 7 0 8 0;
#X connect 9 0 8 0;
#X connect 10 1 22 0;
#X connect 12 0 13 1;
#X connect 13 0 20 0;
#X connect 13 0 36 0;
#X connect 14 0 34 0;
#X connect 15 0 13 0;
#X connect 15 0 35 0;
#X connect 16 0 21 0;
#X connect 16 1 18 1;
#X connect 16 2 19 0;
#X connect 17 0 18 0;
#X connect 18 0 16 0;
#X connect 19 0 17 1;
#X connect 20 0 8 0;
#X connect 21 0 8 0;
#X connect 22 0 15 0;
#X connect 22 1 17 0;
#X connect 22 2 18 1;
#X connect 22 3 7 0;
#X connect 22 4 9 0;
#X connect 23 0 24 0;
#X connect 24 0 32 0;
#X connect 25 0 26 1;
#X connect 26 0 31 0;
#X connect 27 0 26 0;
#X connect 28 0 26 0;
#X connect 29 0 24 0;
#X connect 30 0 29 0;
#X connect 30 1 23 0;
#X connect 30 2 28 0;
#X connect 31 0 24 0;
#X connect 34 0 35 1;
#X connect 35 0 13 0;
#X connect 37 0 39 0;
#X connect 37 0 40 0;
#X connect 38 0 3 0;
#X connect 41 0 4 0;
#X coords 0 -1 1 1 100 80 1 0 0;
