#N canvas -1586 410 1134 499 12;
#X obj 301 50 r reset-all;
#X obj 496 51 r preset-all;
#X obj 595 50 r load-all;
#X obj 693 49 r save-all;
#X obj 101 -65 inlet;
#X obj 199 -64 inlet;
#X obj 397 -63 inlet;
#X obj 104 105 step_seq_16 \$0;
#X connect 0 0 7 2;
#X connect 1 0 7 4;
#X connect 2 0 7 5;
#X connect 3 0 7 6;
#X connect 4 0 7 0;
#X connect 5 0 7 1;
#X connect 6 0 7 3;
#X coords 0 -1 1 1 610 110 1 100 100;
