#N canvas 0 0 1440 878 10;
#X text 142 264 H-radio is just a visual display. Toggles represent
in which beat the samples must be played. They can be thought of as
sixteenth notes in a 4/4. Open the Subpatch [pd sequencer] for more.
;
#X obj 100 103 cnv 15 601 98 empty empty \$1\\\ Sequencer 20 12 0 14
#dfdfdf #404040 0;
#X obj 137 163 hradio 25 1 0 16 NADA NIENTE empty 0 -6 0 8 #dfdfdf
#ff0400 #000000 0;
#X obj 141 142 tgl 15 1 NADA NIENTE empty 0 -6 0 10 #649cc4 #000000
#000000 1 1;
#X obj 167 142 tgl 15 1 NADA NIENTE empty 0 -6 0 10 #c4fcfc #000000
#000000 0 1;
#X obj 192 142 tgl 15 1 NADA NIENTE empty 0 -6 0 10 #c4fcfc #000000
#000000 0 1;
#X obj 215 142 tgl 15 0 NADA NIENTE empty 0 -6 0 10 #c4fcfc #000000
#000000 0 1;
#X obj 266 142 tgl 15 1 NADA NIENTE empty 0 -6 0 10 #c4fcfc #000000
#000000 0 1;
#X obj 291 142 tgl 15 1 NADA NIENTE empty 0 -6 0 10 #c4fcfc #000000
#000000 0 1;
#X obj 316 142 tgl 15 0 NADA NIENTE empty 0 -6 0 10 #c4fcfc #000000
#000000 0 1;
#X obj 367 142 tgl 15 1 NADA NIENTE empty 0 -6 0 10 #c4fcfc #000000
#000000 0 1;
#X obj 392 142 tgl 15 1 NADA NIENTE empty 0 -6 0 10 #c4fcfc #000000
#000000 0 1;
#X obj 415 142 tgl 15 1 NADA NIENTE empty 0 -6 0 10 #c4fcfc #000000
#000000 0 1;
#X obj 466 142 tgl 15 1 NADA NIENTE empty 0 -6 0 10 #c4fcfc #000000
#000000 0 1;
#X obj 492 142 tgl 15 1 NADA NIENTE empty 0 -6 0 10 #c4fcfc #000000
#000000 0 1;
#X obj 516 142 tgl 15 1 NADA NIENTE empty 0 -6 0 10 #c4fcfc #000000
#000000 0 1;
#N canvas 755 482 741 504 sequencer 0;
#X obj 208 57 sel 0 1 2 3 4 5 6 7 8 9 10 11 12 13 14 15;
#X obj -12 17 inlet;
#X obj 89 156 f;
#X obj 104 133 tgl 15 0 empty empty empty 0 -6 0 10 #fcfcfc #000000
#000000 0 1;
#X obj 122 156 f;
#X obj 137 133 tgl 15 0 empty empty empty 0 -6 0 10 #fcfcfc #000000
#000000 0 1;
#X obj 158 156 f;
#X obj 173 133 tgl 15 0 empty empty empty 0 -6 0 10 #fcfcfc #000000
#000000 0 1;
#X obj 191 156 f;
#X obj 206 133 tgl 15 0 empty empty empty 0 -6 0 10 #fcfcfc #000000
#000000 0 1;
#X obj 225 156 f;
#X obj 240 133 tgl 15 0 empty empty empty 0 -6 0 10 #fcfcfc #000000
#000000 0 1;
#X obj 258 156 f;
#X obj 273 133 tgl 15 0 empty empty empty 0 -6 0 10 #fcfcfc #000000
#000000 0 1;
#X obj 294 156 f;
#X obj 309 133 tgl 15 0 empty empty empty 0 -6 0 10 #fcfcfc #000000
#000000 0 1;
#X obj 327 156 f;
#X obj 342 133 tgl 15 0 empty empty empty 0 -6 0 10 #fcfcfc #000000
#000000 0 1;
#X obj 359 157 f;
#X obj 374 134 tgl 15 0 empty empty empty 0 -6 0 10 #fcfcfc #000000
#000000 0 1;
#X obj 392 157 f;
#X obj 407 134 tgl 15 0 empty empty empty 0 -6 0 10 #fcfcfc #000000
#000000 0 1;
#X obj 428 157 f;
#X obj 443 134 tgl 15 0 empty empty empty 0 -6 0 10 #fcfcfc #000000
#000000 0 1;
#X obj 461 157 f;
#X obj 476 134 tgl 15 0 empty empty empty 0 -6 0 10 #fcfcfc #000000
#000000 0 1;
#X obj 495 157 f;
#X obj 510 134 tgl 15 0 empty empty empty 0 -6 0 10 #fcfcfc #000000
#000000 0 1;
#X obj 528 157 f;
#X obj 543 134 tgl 15 0 empty empty empty 0 -6 0 10 #fcfcfc #000000
#000000 0 1;
#X obj 564 157 f;
#X obj 579 134 tgl 15 0 empty empty empty 0 -6 0 10 #fcfcfc #000000
#000000 0 1;
#X obj 597 157 f;
#X obj 612 134 tgl 15 0 empty empty empty 0 -6 0 10 #fcfcfc #000000
#000000 0 1;
#X obj 42 93 inlet;
#X obj 82 93 inlet;
#X obj 122 93 inlet;
#X obj 162 93 inlet;
#X obj 203 93 inlet;
#X obj 243 93 inlet;
#X obj 283 93 inlet;
#X obj 323 93 inlet;
#X obj 363 93 inlet;
#X obj 403 93 inlet;
#X obj 443 93 inlet;
#X obj 483 93 inlet;
#X obj 524 93 inlet;
#X obj 564 93 inlet;
#X obj 604 93 inlet;
#X obj 644 93 inlet;
#X obj 295 217 sel 1;
#X floatatom 295 193 5 0 0 0 - - - 0;
#X obj 295 241 bng 15 250 50 0 empty empty empty 0 -6 0 10 #fcfcfc
#000000 #000000;
#X obj 295 266 outlet;
#X floatatom 113 49 5 0 0 0 - - - 0;
#X text 29 16 Contador;
#X text -17 93 Toggles;
#X text 140 310 Each toggle is stored on a [float]. When the counter
sends numbers to leftmost inlet \, [select] fires up bangs to all [float]
objects in a timely fashion determined by the speed of the counter
\; So \, if a toggle was set to "on" \, it'll go through when [select]
sends a bang corresponding to that toggle. A second [select] will bang
for each toggle that is "on".;
#X text 140 430 This is the bang that triggers the sample.;
#X connect 0 0 2 0;
#X connect 0 1 4 0;
#X connect 0 2 6 0;
#X connect 0 3 8 0;
#X connect 0 4 10 0;
#X connect 0 5 12 0;
#X connect 0 6 14 0;
#X connect 0 7 16 0;
#X connect 0 8 18 0;
#X connect 0 9 20 0;
#X connect 0 10 22 0;
#X connect 0 11 24 0;
#X connect 0 12 26 0;
#X connect 0 13 28 0;
#X connect 0 14 30 0;
#X connect 0 15 32 0;
#X connect 1 0 54 0;
#X connect 2 0 51 0;
#X connect 3 0 2 1;
#X connect 4 0 51 0;
#X connect 5 0 4 1;
#X connect 6 0 51 0;
#X connect 7 0 6 1;
#X connect 8 0 51 0;
#X connect 9 0 8 1;
#X connect 10 0 51 0;
#X connect 11 0 10 1;
#X connect 12 0 51 0;
#X connect 13 0 12 1;
#X connect 14 0 51 0;
#X connect 15 0 14 1;
#X connect 16 0 51 0;
#X connect 17 0 16 1;
#X connect 18 0 51 0;
#X connect 19 0 18 1;
#X connect 20 0 51 0;
#X connect 21 0 20 1;
#X connect 22 0 51 0;
#X connect 23 0 22 1;
#X connect 24 0 51 0;
#X connect 25 0 24 1;
#X connect 26 0 51 0;
#X connect 27 0 26 1;
#X connect 28 0 51 0;
#X connect 29 0 28 1;
#X connect 30 0 51 0;
#X connect 31 0 30 1;
#X connect 32 0 51 0;
#X connect 33 0 32 1;
#X connect 34 0 3 0;
#X connect 35 0 5 0;
#X connect 36 0 7 0;
#X connect 37 0 9 0;
#X connect 38 0 11 0;
#X connect 39 0 13 0;
#X connect 40 0 15 0;
#X connect 41 0 17 0;
#X connect 42 0 19 0;
#X connect 43 0 21 0;
#X connect 44 0 23 0;
#X connect 45 0 25 0;
#X connect 46 0 27 0;
#X connect 47 0 29 0;
#X connect 48 0 31 0;
#X connect 49 0 33 0;
#X connect 50 0 52 0;
#X connect 51 0 50 0;
#X connect 52 0 53 0;
#X connect 54 0 0 0;
#X restore 140 206 pd sequencer -----------------------------------------------
;
#X obj 341 142 tgl 15 1 NADA NIENTE empty 0 -6 0 10 #649cc4 #000000
#000000 1 1;
#X obj 241 142 tgl 15 1 NADA NIENTE empty 0 -6 0 10 #649cc4 #000000
#000000 1 1;
#X obj 442 142 tgl 15 1 NADA NIENTE empty 0 -6 0 10 #649cc4 #000000
#000000 1 1;
#X obj 128 419 outlet;
#X obj 68 -75 cnv 15 170 80 empty empty empty 20 12 0 14 #c4c4c4 #404040
0;
#X obj 125 6 cnv 15 80 60 empty empty empty 20 12 0 14 #e0e0e0 #404040
0;
#X obj 136 16 f;
#X obj 169 18 + 1;
#X obj 136 -44 tgl 15 0 empty empty empty 0 -6 0 10 #fcfcfc #000000
#000000 0 1;
#X floatatom 196 -45 5 0 0 0 - - - 0;
#X obj 136 42 mod 16;
#X obj 196 -72 inlet;
#X obj 136 -72 inlet;
#X obj 136 -22 metro 250;
#X obj 75 -22 moses 1;
#X text 137 -95 on/off;
#X text 197 -95 tempo;
#X text 388 -9 Metro: [moses] reset counter when toggle is "0".;
#X text 210 30 Counter from 0 to 15;
#X obj 584 111 presets_abs_sv;
#X obj 303 -78 inlet;
#X obj 392 -75 bng 15 250 50 0 empty empty empty 17 7 0 10 #fcfcfc
#000000 #000000;
#X msg 329 -3 1;
#X obj 307 -48 t b b b;
#X msg 371 -15 0;
#X floatatom 501 115 5 0 0 0 Step\ Num - - 0;
#X obj 727 -49 loadbang;
#X obj 727 -30 symbol \$1;
#X obj 727 -11 fromsymbol;
#X obj 722 110 print;
#X obj 215 582 pack f f f f f f f f f f f f f f f f f f;
#X obj 677 394 unpack f f f f f f f f f f f f f f f f f;
#X obj 21 -92 r \$0-seq-on;
#X obj 830 49 inlet;
#X obj 128 360 spigot;
#X obj 109 169 bng 15 250 50 0 empty empty empty 17 7 0 10 #fcfcfc
#000000 #000000;
#X obj 913 49 inlet;
#X obj 999 49 inlet;
#X msg 273 -51 0;
#X obj 368 26 loadbang;
#X msg 368 51 0 0 0 0 0 0 0 0 0 0 0 0 0 0 0 0;
#X obj 1059 49 inlet;
#X obj 225 110 bng 15 250 50 0 empty empty CLEAR\\\ ALL 17 7 0 10 #fcfcfc
#000000 #000000;
#X obj 225 414 spigot;
#X obj 258 365 loadbang;
#X msg 258 389 1;
#X obj 550 115 tgl 15 0 empty empty empty 17 7 0 10 #fcfcfc #000000
#000000 0 1;
#X obj 613 55 loadbang;
#X msg 612 79 1;
#X msg 163 327 0;
#X msg 208 325 1;
#X obj 664 425 pack f f f f f f f f f f f f f f f f f f;
#X obj 797 205 sel 11;
#X obj 798 226 bng 15 250 50 0 empty empty empty 17 7 0 10 #fcfcfc
#000000 #000000;
#X obj 830 176 - 1;
#X obj 664 450 list split 1;
#X obj 474 581 unpack f f f f f f f f f f f f f f f f f;
#X obj 854 199 t b b;
#X obj 1055 262 i;
#X obj 852 342 spigot;
#X text 991 18 load all;
#X text 902 18 preset all;
#X text 1076 18 save all;
#X msg 922 301 1;
#X obj 815 246 t b b b;
#X msg 886 302 0;
#X obj 36 78 t a a;
#X obj 452 88 loadbang;
#X msg 511 88 12;
#X obj 86 70 t a a;
#X obj 1281 595 outlet;
#X connect 2 0 16 0;
#X connect 3 0 16 1;
#X connect 3 0 47 1;
#X connect 4 0 16 2;
#X connect 4 0 47 2;
#X connect 5 0 16 3;
#X connect 5 0 47 3;
#X connect 6 0 16 4;
#X connect 6 0 47 4;
#X connect 7 0 16 6;
#X connect 7 0 47 6;
#X connect 8 0 16 7;
#X connect 8 0 47 7;
#X connect 9 0 16 8;
#X connect 9 0 47 8;
#X connect 10 0 16 10;
#X connect 10 0 47 10;
#X connect 11 0 16 11;
#X connect 11 0 47 11;
#X connect 12 0 16 12;
#X connect 12 0 47 12;
#X connect 13 0 16 14;
#X connect 13 0 47 14;
#X connect 14 0 16 15;
#X connect 14 0 47 15;
#X connect 15 0 16 16;
#X connect 15 0 47 16;
#X connect 16 0 51 0;
#X connect 17 0 16 9;
#X connect 17 0 47 9;
#X connect 18 0 16 5;
#X connect 18 0 47 5;
#X connect 19 0 16 13;
#X connect 19 0 47 13;
#X connect 23 0 24 0;
#X connect 23 0 27 0;
#X connect 24 0 23 1;
#X connect 25 0 30 0;
#X connect 25 0 31 0;
#X connect 26 0 30 1;
#X connect 27 0 86 0;
#X connect 28 0 26 0;
#X connect 29 0 25 0;
#X connect 30 0 23 0;
#X connect 31 0 23 1;
#X connect 36 0 47 0;
#X connect 36 1 48 0;
#X connect 37 0 40 0;
#X connect 38 0 40 0;
#X connect 39 0 31 0;
#X connect 40 0 55 0;
#X connect 40 0 67 0;
#X connect 40 1 39 0;
#X connect 40 2 41 0;
#X connect 40 2 66 0;
#X connect 41 0 25 0;
#X connect 42 0 27 1;
#X connect 42 0 47 17;
#X connect 42 0 71 0;
#X connect 43 0 44 0;
#X connect 44 0 45 0;
#X connect 45 0 36 1;
#X connect 45 0 46 0;
#X connect 47 0 36 0;
#X connect 48 0 68 1;
#X connect 48 1 68 2;
#X connect 48 2 68 3;
#X connect 48 3 68 4;
#X connect 48 4 68 5;
#X connect 48 5 68 6;
#X connect 48 6 68 7;
#X connect 48 7 68 8;
#X connect 48 8 68 9;
#X connect 48 9 68 10;
#X connect 48 10 68 11;
#X connect 48 11 68 12;
#X connect 48 12 68 13;
#X connect 48 13 68 14;
#X connect 48 14 68 15;
#X connect 48 15 68 16;
#X connect 48 16 68 17;
#X connect 49 0 25 0;
#X connect 50 0 63 0;
#X connect 51 0 20 0;
#X connect 51 0 52 0;
#X connect 53 0 36 2;
#X connect 54 0 36 3;
#X connect 54 0 80 0;
#X connect 55 0 2 0;
#X connect 55 0 25 0;
#X connect 56 0 57 0;
#X connect 57 0 48 0;
#X connect 58 0 36 4;
#X connect 59 0 57 0;
#X connect 61 0 62 0;
#X connect 62 0 60 1;
#X connect 63 0 51 1;
#X connect 64 0 65 0;
#X connect 65 0 63 0;
#X connect 66 0 51 1;
#X connect 67 0 51 1;
#X connect 68 0 72 0;
#X connect 69 0 70 0;
#X connect 70 0 81 0;
#X connect 71 0 69 1;
#X connect 72 1 73 0;
#X connect 73 0 3 0;
#X connect 73 1 4 0;
#X connect 73 2 5 0;
#X connect 73 3 6 0;
#X connect 73 4 18 0;
#X connect 73 5 7 0;
#X connect 73 6 8 0;
#X connect 73 7 9 0;
#X connect 73 8 17 0;
#X connect 73 9 10 0;
#X connect 73 10 11 0;
#X connect 73 11 12 0;
#X connect 73 12 19 0;
#X connect 73 13 13 0;
#X connect 73 14 14 0;
#X connect 73 15 15 0;
#X connect 73 16 42 0;
#X connect 76 0 68 0;
#X connect 76 0 87 0;
#X connect 80 0 76 1;
#X connect 81 1 82 0;
#X connect 81 2 76 0;
#X connect 82 0 76 1;
#X connect 83 0 69 0;
#X connect 83 1 2 0;
#X connect 84 0 85 0;
#X connect 85 0 42 0;
#X connect 86 0 16 0;
#X connect 86 1 69 0;
#X coords 0 -1 1 1 600 104 1 100 100;
