#N canvas 750 205 504 720 10;
#X obj 64 273 noise~;
#X obj 129 378 *~;
#X obj 110 6 loadbang;
#X obj 110 33 metro;
#X obj 63 351 vcf~ \$2;
#X obj 154 33 inlet;
#X obj 121 59 random;
#X obj 144 326 line~;
#X obj 82 325 line~;
#X msg 82 299 \$1 \$2;
#X obj 82 247 pack f f;
#X obj 127 194 + 1;
#X obj 127 220 pow 3;
#X obj 144 274 pack f f;
#X msg 144 300 \$1 \, 0 \$2;
#X obj 129 404 b~;
#X obj 148 434 mtof;
#X obj 129 486 autopan;
#X obj 198 33 inlet;
#X obj 129 460 vcf~ \$4;
#X obj 129 512 throw~ left;
#X obj 168 538 throw~ right;
#X obj 110 86 random 100;
#X obj 110 113 / 100;
#X obj 110 140 t f f f f;
#X obj 161 167 * \$3;
#X obj 144 247 * 50;
#X obj 127 167 * 4;
#X obj 89 167 * \$1;
#X connect 0 0 4 0;
#X connect 1 0 15 0;
#X connect 2 0 3 0;
#X connect 3 0 6 0;
#X connect 3 0 22 0;
#X connect 4 0 1 0;
#X connect 5 0 6 1;
#X connect 6 0 3 1;
#X connect 7 0 1 1;
#X connect 8 0 4 1;
#X connect 9 0 8 0;
#X connect 10 0 9 0;
#X connect 11 0 12 0;
#X connect 12 0 10 1;
#X connect 13 0 14 0;
#X connect 14 0 7 0;
#X connect 15 0 19 0;
#X connect 16 0 19 1;
#X connect 17 0 20 0;
#X connect 17 1 21 0;
#X connect 18 0 16 0;
#X connect 19 0 17 0;
#X connect 22 0 23 0;
#X connect 23 0 24 0;
#X connect 24 0 28 0;
#X connect 24 1 27 0;
#X connect 24 2 26 0;
#X connect 24 3 25 0;
#X connect 25 0 13 1;
#X connect 26 0 13 0;
#X connect 27 0 11 0;
#X connect 28 0 10 0;
